<svg width="202" height="46" viewBox="0 0 202 46" fill="none" xmlns="http://www.w3.org/2000/svg">
<g clip-path="url(#clip0_169_418)">
<path d="M100.534 28.52C100.534 23.2044 104.883 18.9111 110.267 18.9111C115.65 18.9111 119.999 23.2044 119.999 28.52C119.999 33.8356 115.65 38.1289 110.267 38.1289C104.883 38.1289 100.534 33.9378 100.534 28.52ZM140.292 28.52C140.292 23.2044 144.641 18.9111 150.025 18.9111C155.408 18.9111 159.757 23.2044 159.757 28.52C159.757 33.8356 155.408 38.1289 150.025 38.1289C144.641 38.2311 140.292 33.9378 140.292 28.52ZM48.041 28.52C48.041 23.2044 52.3895 18.9111 57.7734 18.9111C63.1573 18.9111 67.5059 23.2044 67.5059 28.52C67.5059 33.8356 63.1573 38.1289 57.7734 38.1289C52.3895 38.2311 48.041 33.9378 48.041 28.52ZM8.28293 28.52C8.28293 23.2044 12.6315 18.9111 18.0154 18.9111C23.3993 18.9111 27.7478 23.2044 27.7478 28.52C27.7478 33.8356 23.3993 38.1289 18.0154 38.1289C12.6315 38.2311 8.28293 33.9378 8.28293 28.52ZM88.7309 11.4489H80.2409V45.1822H88.7309V11.4489ZM27.7478 45.2844H36.2378V11.5511H27.7478V14.3111C24.8488 12.3689 21.4321 11.2444 17.6012 11.2444C7.86879 11.1422 0 18.9111 0 28.52C0 38.2311 7.86879 46 17.7048 46C21.4321 46 24.9523 44.8756 27.8514 42.9333V45.2844H27.7478ZM159.757 45.2844H168.247V11.5511H159.757V14.3111C156.858 12.3689 153.441 11.2444 149.61 11.2444C139.878 11.2444 131.906 19.0133 131.906 28.7244C131.906 38.4356 139.774 46.2044 149.61 46.2044C153.338 46.2044 156.858 45.08 159.757 43.1378V45.2844ZM171.353 34.3467C171.664 41.1956 177.462 46 187.401 46C195.477 46 202.104 42.5244 202.104 34.96C202.104 29.6444 199.101 26.5778 192.164 25.2489L186.78 24.2267C183.26 23.6133 180.879 22.8978 180.879 20.8533C180.879 18.6044 183.26 17.5822 186.159 17.5822C190.404 17.5822 192.164 19.7289 192.268 22.1822H200.861C200.343 15.5378 195.063 11.1422 186.366 11.1422C177.462 11.1422 172.181 15.9467 172.181 22.2844C172.181 29.9511 178.497 31.1778 183.881 32.2L188.333 33.0178C191.543 33.6311 192.992 34.5511 192.992 36.3911C192.992 38.0267 191.336 39.6622 187.608 39.6622C182.017 39.6622 180.257 36.8 180.154 34.3467H171.353ZM67.5059 0V14.2089C64.6069 12.2667 61.1902 11.1422 57.3593 11.1422C47.6269 11.1422 39.6545 18.9111 39.6545 28.6222C39.7581 38.2311 47.6269 46 57.4628 46C61.1902 46 64.7104 44.8756 67.6094 42.9333V45.2844H76.0994V0H67.5059ZM119.999 0V14.2089C117.1 12.2667 113.683 11.1422 109.852 11.1422C100.12 11.1422 92.1476 18.9111 92.1476 28.6222C92.1476 38.3333 100.016 46.1022 109.852 46.1022C113.58 46.1022 117.1 44.9778 119.999 43.0356V45.3867H128.489V0H119.999ZM80.2409 0V8.38222H88.7309V0" fill="#101913"/>
</g>
<defs>
<clipPath id="clip0_169_418">
<rect width="202" height="46" fill="white"/>
</clipPath>
</defs>
</svg>
