<svg width="207" height="26" viewBox="0 0 207 26" fill="none" xmlns="http://www.w3.org/2000/svg">
<g clip-path="url(#clip0_169_416)">
<path d="M196.416 4.4824H196.557C196.88 6.1256 197.021 6.8744 197.349 8.06693L199.258 16.1373H193.67L195.578 8.06693C195.858 6.8744 196.044 6.1256 196.415 4.4824M201.488 25.6516H206.75L200.142 0.494H192.972L186.315 25.6533H191.296L192.784 20.0235H200L201.488 25.6516ZM174.909 25.9983C177.796 25.9983 180.589 25.2529 182.406 24.4556V11.856H174.304V15.8895H177.612V21.5159C177.005 21.9145 175.978 22.1659 174.866 22.1659C171.421 22.1659 170.349 20.3233 170.349 14.9951V11.752C170.349 6.474 171.371 3.88267 174.537 3.88267C176.725 3.88267 177.474 5.47733 177.523 7.17253H182.504C182.449 2.73867 179.473 0 174.536 0C167.643 0 165.133 4.28133 165.133 11.2095V14.8963C165.085 22.4155 167.462 26 174.908 26M151.591 4.4824H151.733C152.057 6.1256 152.199 6.8744 152.522 8.06693L154.434 16.1373H148.847L150.755 8.06693C151.033 6.8744 151.219 6.1256 151.591 4.4824ZM156.666 25.6533H161.922L155.317 0.494H148.143L141.493 25.6533H146.474L147.962 20.0235H155.175L156.666 25.6516V25.6533ZM131.527 25.6533H136.507V0.494H131.527V25.6533ZM117.842 26C123.379 26 126.08 23.2579 126.219 18.1341H121.194C121.101 20.6232 120.353 22.1659 117.983 22.1659C115.285 22.1659 114.263 20.1257 114.263 14.8963V11.2095C114.263 5.928 115.285 3.93813 117.983 3.93813C120.499 3.93813 120.916 5.73213 121.007 7.62493H126.033C125.984 3.24133 123.659 0.104 117.844 0.104C111.372 0.104 109.001 4.43733 109.001 11.2095V14.8963C109.001 21.7187 111.37 26 117.842 26ZM84.1397 25.6533H88.5643V11.0587C88.5643 9.0168 88.4673 6.526 88.3735 4.4824H88.519C89.2144 7.072 89.5864 8.41707 90.2381 10.3584L95.4066 25.6533H102.668V0.494H98.2448V14.4959C98.2448 16.3332 98.2933 18.7772 98.3386 21.1172H98.1995C97.8276 19.3717 97.4977 17.628 96.5209 14.7905L91.6806 0.495733H84.096V25.6533H84.1397ZM63.844 25.6533H77.3895V21.6147H68.8249V14.6415H76.5955V10.5612H68.8233V4.4824H77.0629V0.4472H63.8391V25.6499L63.844 25.6533ZM45.6458 25.6533H58.6803V21.6147H50.6267V0.495733H45.6458V25.6533ZM30.1919 4.48067H30.3326C30.6561 6.12387 30.8016 6.87267 31.1251 8.0652L33.0333 16.1356H27.4492L29.3575 8.0652C29.6356 6.87267 29.8232 6.12387 30.1936 4.48067M35.2667 25.6533H40.5274L33.9163 0.494H26.7489L20.091 25.6533H25.0719L26.5597 20.0235H33.7772L35.2683 25.6516L35.2667 25.6533ZM4.77622 21.8157V14.4976H7.80359C10.3636 14.4976 11.5716 15.7421 11.5716 18.1792C11.5716 20.8659 9.99003 21.8677 7.7098 21.8677H4.77622V21.8157ZM4.77622 10.6583V4.33333H7.89739C10.1744 4.33333 11.1528 5.42533 11.1528 7.47067C11.1528 9.516 10.0418 10.66 7.94429 10.66H4.77622V10.6583ZM-0.204719 25.6533H8.59278C13.5252 25.6533 16.5493 23.7553 16.5493 18.5293C16.5493 15.1909 14.7381 12.9029 11.384 12.5493V12.4037C14.3597 11.856 16.1321 10.1123 16.1321 6.7756C16.1321 2.4388 13.8034 0.497467 8.82566 0.497467H-0.25V25.6533H-0.204719Z" fill="#101913"/>
</g>
<defs>
<clipPath id="clip0_169_416">
<rect width="207" height="26" fill="white"/>
</clipPath>
</defs>
</svg>
