<svg width="204" height="33" viewBox="0 0 204 33" fill="none" xmlns="http://www.w3.org/2000/svg">
<g clip-path="url(#clip0_169_427)">
<path fill-rule="evenodd" clip-rule="evenodd" d="M14.0078 17.8508L10.2686 2.40968C10.1653 1.98725 9.97618 1.59074 9.7132 1.24491C9.45014 0.899077 9.11888 0.61136 8.74 0.399728C8.36112 0.188096 7.94278 0.0570963 7.51115 0.0149131C7.07952 -0.02727 6.64384 0.0202694 6.23135 0.154562L2.18496 1.47385C1.77213 1.60755 1.39122 1.82524 1.06607 2.1133C0.740921 2.40134 0.478512 2.75357 0.29525 3.14795C0.111987 3.54234 0.0118105 3.97039 0.000982683 4.40536C-0.00984522 4.84033 0.0689083 5.27287 0.23232 5.67593L6.26321 20.373C6.56439 21.1122 7.13303 21.71 7.85516 22.0466C8.5773 22.3831 9.39955 22.4334 10.1571 22.1875L11.9208 21.6124C12.6781 21.3656 13.3142 20.8407 13.7013 20.1429C14.0884 19.4451 14.1979 18.6262 14.0078 17.8508ZM14.5699 32.7898C13.7569 33.0534 12.8842 33.0695 12.0622 32.836C11.24 32.6026 10.5053 32.1301 9.95068 31.4782C9.39609 30.8264 9.04641 30.0243 8.94598 29.1733C8.84546 28.3223 8.99862 27.4605 9.38597 26.6967C9.77341 25.933 10.3778 25.3014 11.1229 24.8818C11.8678 24.4623 12.7201 24.2735 13.572 24.3393C14.4239 24.4051 15.2372 24.7225 15.9095 25.2516C16.5816 25.7806 17.0824 26.4975 17.3486 27.3118C17.5261 27.8544 17.5949 28.4269 17.5512 28.9962C17.5076 29.5656 17.3521 30.1207 17.0939 30.6297C16.8358 31.1387 16.4798 31.5916 16.0467 31.9622C15.6136 32.3329 15.1117 32.6141 14.5699 32.7898ZM23.5525 28.8251C29.1009 27.0173 33.5797 20.6012 31.3518 13.7217C29.1214 6.84686 21.7387 4.29275 16.1903 6.10049C15.5674 6.30297 15.0442 6.73457 14.7258 7.30839C14.4074 7.88221 14.3176 8.55566 14.4743 9.1933L15.0341 11.5054C15.1197 11.8525 15.2755 12.1783 15.4919 12.4624C15.7084 12.7464 15.9809 12.9828 16.2924 13.1567C16.6039 13.3305 16.9477 13.4382 17.3025 13.473C17.6573 13.5078 18.0154 13.4689 18.3546 13.3588L18.5822 13.2858C19.1312 13.0901 19.7136 13.0067 20.2953 13.0406C20.8769 13.0745 21.4459 13.2249 21.9687 13.4831C22.4913 13.7412 22.9572 14.1017 23.3386 14.5434C23.72 14.9851 24.0094 15.499 24.1895 16.0547C24.3695 16.6105 24.4367 17.1968 24.3871 17.779C24.3375 18.3612 24.172 18.9276 23.9005 19.4446C23.629 19.9616 23.2569 20.4187 22.8063 20.7892C22.3556 21.1595 21.8355 21.4356 21.2767 21.601L21.0491 21.674C20.7106 21.785 20.3985 21.9649 20.1323 22.2023C19.8662 22.4398 19.6517 22.7297 19.5022 23.0539C19.3528 23.3781 19.2715 23.7298 19.2635 24.0869C19.2556 24.4441 19.3212 24.7991 19.4561 25.1297L20.3505 27.3346C20.5977 27.9427 21.0654 28.4345 21.6595 28.711C22.2534 28.9875 22.9298 29.0283 23.5525 28.8251Z" fill="#E31E52"/>
<path fill-rule="evenodd" clip-rule="evenodd" d="M48.5842 11.1516C51.5336 9.56761 55.1681 9.85743 57.6305 12.3248C59.9928 14.6986 60.0406 18.111 60.0406 19.4531C60.0406 23.2534 58.2904 26.4558 54.9587 27.4418C50.5231 28.8045 43.7299 27.6016 43.7299 27.6016C43.5792 27.5848 43.4399 27.5128 43.3387 27.3996C43.2376 27.2864 43.1815 27.1397 43.1814 26.9876V5.98861C43.1814 5.85603 43.2338 5.72889 43.3274 5.63514C43.4208 5.5414 43.5476 5.48874 43.6798 5.48874H47.84C47.9722 5.48874 48.0989 5.5414 48.1924 5.63514C48.2859 5.72889 48.3384 5.85603 48.3384 5.98861V11.0101C48.3385 11.0389 48.3462 11.0671 48.3606 11.092C48.3751 11.1169 48.3958 11.1375 48.4206 11.1519C48.4456 11.1661 48.4737 11.1737 48.5024 11.1736C48.5311 11.1736 48.5593 11.166 48.5842 11.1516ZM48.5409 23.1873C49.8199 23.5479 52.3734 23.6848 53.8344 22.1624V22.167C54.8358 21.19 56.0079 18.0311 53.6546 15.671C52.6624 14.653 51.0375 14.1029 48.7798 15.0478C48.6462 15.1119 48.5336 15.213 48.4553 15.3392C48.3771 15.4654 48.3365 15.6114 48.3384 15.76V22.8997C48.3363 22.9631 48.3551 23.0256 48.3916 23.0775C48.4281 23.1294 48.4806 23.1679 48.5409 23.1873ZM120.622 6.00233V27.7226C120.623 27.8108 120.659 27.8952 120.72 27.9576C120.783 28.02 120.867 28.0553 120.955 28.0559H125.477C125.565 28.0559 125.65 28.0208 125.713 27.9584C125.775 27.896 125.81 27.8112 125.811 27.7226V6.00233C125.811 5.86976 125.759 5.74262 125.666 5.64887C125.572 5.55513 125.445 5.50247 125.313 5.50247H121.117C120.985 5.50367 120.859 5.55687 120.767 5.65048C120.674 5.74409 120.622 5.87055 120.622 6.00233ZM80.2179 24.2144C79.9636 24.1786 79.7225 24.0789 79.517 23.9245C79.2894 23.7237 79.1687 23.3699 79.1437 22.7947V10.7773C79.1431 10.6619 79.0971 10.5513 79.0157 10.4697C78.9343 10.3881 78.8241 10.3419 78.709 10.3414H74.4441C74.3289 10.3414 74.2183 10.3873 74.1368 10.4691C74.0553 10.5508 74.0095 10.6617 74.0095 10.7773V21.925C74.0117 21.9417 74.0117 21.9586 74.0095 21.9753C73.5998 23.4269 71.9021 23.8652 70.5708 23.6392C68.6796 23.3197 67.8898 21.7265 67.9581 19.8913C67.9581 19.8275 67.9832 11.3982 67.9877 10.7773C67.9877 10.6617 67.9419 10.5508 67.8604 10.4691C67.7788 10.3873 67.6683 10.3414 67.553 10.3414H63.2972C63.183 10.3414 63.0733 10.3867 62.9923 10.4676C62.9113 10.5484 62.8655 10.6581 62.8648 10.7728C62.8648 12.5987 62.8512 21.3772 62.8512 21.3772C62.8512 22.7467 63.2791 27.1839 67.7259 27.9965C69.8174 28.3777 72.3049 27.7043 74.3144 26.271C74.3329 26.2571 74.354 26.2471 74.3764 26.2417C74.3989 26.2362 74.4222 26.2354 74.4449 26.2392C74.4677 26.2431 74.4894 26.2515 74.5089 26.264C74.5284 26.2765 74.545 26.2928 74.558 26.312C75.0421 26.9817 75.7308 27.4746 76.5197 27.7158C77.6932 28.1028 79.2874 27.9467 79.7689 27.8995L79.7809 27.8984C79.8565 27.89 79.927 27.856 79.9808 27.8021C80.0346 27.7482 80.0684 27.6774 80.0768 27.6016L80.4842 24.5979C80.4994 24.5117 80.48 24.4228 80.43 24.3509C80.3801 24.2791 80.3039 24.23 80.2179 24.2144ZM165.54 17.6567C165.388 15.7007 164.784 13.6601 163.546 12.1787L163.513 12.1387L163.481 12.1006C162.972 11.4852 161.61 9.83977 157.416 9.85289C155.697 9.85289 153.977 9.9693 152.265 10.1336C151.287 10.2227 150.309 10.3231 149.332 10.4258C148.7 10.4924 148.701 10.8771 148.704 11.3947C148.704 11.4266 148.704 11.4589 148.704 11.4918V32.2214C148.691 32.3222 148.699 32.4246 148.725 32.5225C148.752 32.6204 148.798 32.7121 148.861 32.792C149.015 32.9037 149.206 32.9526 149.395 32.929H153.141C153.234 32.9551 153.331 32.9566 153.424 32.9334C153.517 32.9102 153.602 32.863 153.67 32.7966C153.74 32.7301 153.79 32.6466 153.817 32.5546C153.844 32.4625 153.846 32.3649 153.824 32.2716C153.833 31.0675 153.831 29.8795 153.828 28.6876C153.826 28.0901 153.824 27.4916 153.824 26.8895C153.824 26.8575 153.832 26.8261 153.85 26.799C153.866 26.7718 153.89 26.75 153.919 26.7363C153.948 26.7227 153.98 26.7175 154.012 26.7216C154.043 26.7257 154.073 26.7388 154.097 26.7594C155.59 28.0627 157.823 28.4233 159.739 27.8664C161.77 27.2821 163.453 25.7209 164.421 23.8333C165.388 21.9456 165.701 19.7749 165.54 17.6567ZM160.306 20.1538C159.878 21.8315 159.111 23.1211 156.808 23.2603C155.656 23.3265 153.827 22.6737 153.827 21.5987V15.1689C153.827 14.9223 153.854 14.742 154.093 14.6348C154.587 14.4065 155.914 14.2216 156.931 14.2535C161.31 14.3791 160.529 19.3253 160.317 20.1538H160.306ZM93.6154 18.5744C93.251 19.0925 93.251 19.2682 93.5924 19.7521L99.6285 27.5378C99.6639 27.5877 99.6853 27.6467 99.6894 27.708C99.6935 27.7692 99.6803 27.8305 99.6507 27.8847C99.6236 27.9398 99.5816 27.986 99.529 28.0179C99.4771 28.0498 99.4163 28.0662 99.3554 28.065H94.3845C94.3294 28.0648 94.276 28.0509 94.2274 28.0246C94.1789 27.9983 94.1378 27.9605 94.1073 27.9144L88.9094 21.1536C88.8774 21.1125 88.8329 21.0823 88.7836 21.067C88.7334 21.0517 88.6808 21.052 88.6306 21.0679C88.5812 21.0838 88.5376 21.1146 88.5064 21.156C88.4743 21.1974 88.4562 21.2475 88.4537 21.2997V27.7318C88.4537 27.8203 88.4175 27.9051 88.355 27.9675C88.2925 28.03 88.2078 28.065 88.1198 28.065H83.6318C83.5438 28.0644 83.4599 28.0291 83.3973 27.9668C83.3348 27.9044 83.3003 27.82 83.2994 27.7318V6.00233C83.2986 5.93611 83.311 5.87043 83.3365 5.80911C83.3611 5.74779 83.3982 5.69204 83.4442 5.64511C83.4911 5.59818 83.5462 5.56099 83.6071 5.53572C83.6688 5.51045 83.7338 5.4976 83.8004 5.49791H87.9536C88.0852 5.49791 88.2119 5.55056 88.3057 5.64431C88.3994 5.73805 88.4521 5.86519 88.4521 5.99777V17.4103C88.4537 17.4568 88.4694 17.5018 88.4973 17.5391C88.5253 17.5765 88.5631 17.6043 88.6076 17.6189C88.652 17.6336 88.6989 17.6344 88.7441 17.6212C88.7885 17.6079 88.828 17.5813 88.8568 17.5449C89.8579 16.1754 93.3103 11.3229 93.8638 10.5308C93.8943 10.4863 93.9346 10.45 93.9823 10.4249C94.03 10.3999 94.0827 10.3868 94.1369 10.387H98.991C99.0535 10.3854 99.1152 10.4023 99.1678 10.4356C99.2213 10.4689 99.2633 10.5171 99.2888 10.5742C99.3176 10.6298 99.3299 10.6927 99.3241 10.755C99.3176 10.8174 99.2937 10.8767 99.255 10.9257L93.6154 18.5744ZM197.789 19.7521C197.449 19.2682 197.449 19.0925 197.813 18.5744L203.462 10.9257C203.5 10.8761 203.523 10.817 203.529 10.7549C203.534 10.6929 203.524 10.6305 203.496 10.5745C203.469 10.5186 203.426 10.4715 203.373 10.4383C203.321 10.4052 203.26 10.3874 203.198 10.387H198.335C198.281 10.3867 198.228 10.3996 198.18 10.4247C198.133 10.4498 198.091 10.4862 198.062 10.5308C197.508 11.3229 194.056 16.1754 193.055 17.5449C193.026 17.5822 192.986 17.6096 192.941 17.6234C192.897 17.6372 192.848 17.6366 192.804 17.6218C192.759 17.6071 192.72 17.5788 192.692 17.541C192.664 17.503 192.648 17.4574 192.648 17.4103V5.99776C192.648 5.93212 192.634 5.86712 192.61 5.80647C192.584 5.74583 192.548 5.69072 192.501 5.6443C192.455 5.59789 192.4 5.56107 192.34 5.53595C192.279 5.51082 192.214 5.4979 192.149 5.4979H187.987C187.921 5.4979 187.856 5.51082 187.796 5.53595C187.735 5.56107 187.68 5.59789 187.634 5.6443C187.588 5.69072 187.551 5.74583 187.526 5.80647C187.501 5.86712 187.488 5.93212 187.488 5.99776V27.7272C187.488 27.8158 187.525 27.9005 187.587 27.963C187.65 28.0254 187.734 28.0604 187.822 28.0604H192.31C192.398 28.0598 192.483 28.0245 192.545 27.9621C192.607 27.8998 192.643 27.8154 192.643 27.7272V21.2997C192.647 21.2481 192.666 21.1989 192.697 21.1583C192.729 21.1176 192.772 21.0875 192.821 21.0717C192.87 21.0561 192.922 21.0554 192.972 21.07C193.021 21.0846 193.065 21.1137 193.098 21.1536L198.296 27.9144C198.327 27.9603 198.368 27.998 198.416 28.0243C198.465 28.0506 198.518 28.0645 198.573 28.065H203.546C203.608 28.0657 203.668 28.0491 203.719 28.0172C203.772 27.9853 203.814 27.9394 203.842 27.8847C203.871 27.8305 203.884 27.769 203.88 27.7075C203.876 27.6461 203.854 27.5872 203.817 27.5378L197.789 19.7521ZM117.465 24.2113L117.518 24.2235C117.601 24.2427 117.674 24.2927 117.722 24.3634C117.77 24.4341 117.789 24.5203 117.775 24.6047L117.363 27.6085C117.356 27.6836 117.323 27.754 117.27 27.8076C117.217 27.8612 117.147 27.8949 117.072 27.9029L116.993 27.9112C116.417 27.9724 114.637 28.1614 113.358 27.5514C112.752 27.2825 112.229 26.8543 111.845 26.312C111.833 26.2935 111.818 26.2776 111.8 26.2651C111.782 26.2527 111.762 26.2442 111.741 26.2399C111.72 26.2356 111.697 26.2357 111.676 26.2403C111.655 26.2448 111.635 26.2537 111.618 26.2663C110.966 26.7366 108.128 28.5671 104.926 27.9737C103.994 27.8117 103.12 27.4081 102.391 26.8028C100.004 24.7485 99.8448 20.3409 102.188 18.1452C102.777 17.6519 103.442 17.2586 104.157 16.9811C107.186 15.6641 111.305 15.8605 111.305 15.8605C111.351 15.0707 111.205 14.0618 109.244 13.8838C107.666 13.7094 104.751 14.2234 103.887 14.3758C103.812 14.3889 103.753 14.3994 103.711 14.4065C103.646 14.4185 103.579 14.4174 103.514 14.403C103.449 14.3887 103.388 14.3614 103.334 14.3229C103.28 14.2844 103.234 14.2354 103.199 14.1788C103.164 14.1222 103.141 14.0592 103.131 13.9933L102.188 11.1836C102.178 11.1187 102.179 11.0522 102.194 10.988C102.208 10.9238 102.235 10.8631 102.274 10.8095C102.312 10.7558 102.36 10.7102 102.415 10.6753C102.471 10.6404 102.533 10.6169 102.598 10.6061C103.495 10.4646 105.996 10.1062 107.079 9.98984C112.622 9.32992 114.319 11.1622 114.941 11.8334L114.942 11.8337C114.979 11.875 115.014 11.912 115.044 11.9437C116.394 13.4592 116.485 15.5956 116.472 17.5198L116.435 22.5413C116.435 23.9758 116.924 24.0875 117.465 24.2113ZM111.023 22.9704C111.194 22.7946 111.291 22.5588 111.292 22.313V19.396C111.292 19.0897 110.466 19.1799 110.262 19.2023C110.237 19.2049 110.223 19.2066 110.218 19.2066C108.825 19.396 107.837 19.6562 107.207 19.9849C106.406 20.4094 106.003 21.0509 106.003 21.9022C105.991 22.192 106.047 22.4805 106.166 22.745C106.284 23.0096 106.462 23.243 106.685 23.4269C108.369 24.6321 110.477 23.5524 111.023 22.9704ZM145.608 24.2235L145.555 24.2112C145.016 24.0874 144.527 23.9754 144.527 22.5413L144.564 17.5198C144.578 15.5956 144.485 13.4592 143.137 11.9437C143.106 11.9115 143.071 11.8739 143.032 11.8317V11.8317C142.407 11.159 140.707 9.33042 135.172 9.98984C134.089 10.1062 131.587 10.4646 130.691 10.6061C130.561 10.629 130.445 10.7026 130.368 10.8107C130.292 10.9189 130.261 11.0529 130.284 11.1836L131.225 13.9933C131.235 14.0592 131.259 14.1222 131.294 14.1788C131.329 14.2354 131.374 14.2844 131.429 14.3229C131.483 14.3614 131.544 14.3887 131.609 14.403C131.674 14.4174 131.74 14.4185 131.806 14.4065L131.844 14.3995C132.463 14.2862 135.658 13.7006 137.331 13.8792C139.293 14.0573 139.439 15.0661 139.395 15.8558C139.395 15.8558 135.274 15.6596 132.245 16.9766C131.533 17.255 130.871 17.6481 130.286 18.1407C127.944 20.3364 128.1 24.744 130.488 26.7982C131.217 27.4034 132.091 27.8071 133.024 27.9691C136.228 28.5626 139.064 26.732 139.715 26.2618C139.732 26.2492 139.752 26.2403 139.774 26.2357C139.794 26.2311 139.816 26.231 139.838 26.2353C139.859 26.2395 139.88 26.2482 139.897 26.2606C139.915 26.273 139.93 26.2889 139.942 26.3074C140.326 26.8497 140.849 27.278 141.455 27.5468C142.734 28.1567 144.513 27.9679 145.09 27.9067L145.17 27.8984C145.245 27.8904 145.314 27.8567 145.367 27.8031C145.42 27.7494 145.454 27.6791 145.461 27.6039L145.884 24.6047C145.897 24.5178 145.875 24.4292 145.824 24.3581C145.772 24.2869 145.695 24.2387 145.608 24.2235ZM139.394 22.313C139.392 22.5588 139.296 22.7946 139.125 22.9704C138.576 23.5524 136.469 24.6321 134.787 23.4269C134.563 23.2429 134.386 23.0094 134.267 22.7449C134.149 22.4804 134.093 22.192 134.105 21.9022C134.105 21.0509 134.508 20.4094 135.31 19.9849C135.941 19.6562 136.927 19.396 138.319 19.2066C138.324 19.2066 138.339 19.2049 138.363 19.2023C138.568 19.1799 139.395 19.0896 139.395 19.396L139.394 22.313ZM184.308 24.2113C184.326 24.2153 184.344 24.2194 184.361 24.2235C184.444 24.2421 184.517 24.291 184.566 24.3607C184.614 24.4303 184.636 24.5157 184.625 24.6001L184.213 27.6039C184.205 27.6791 184.173 27.7494 184.12 27.8031C184.066 27.8567 183.996 27.8904 183.922 27.8984C183.899 27.9008 183.871 27.9036 183.841 27.9069C183.261 27.9682 181.484 28.1563 180.208 27.5468C179.601 27.2785 179.078 26.8502 178.694 26.3074C178.683 26.2892 178.668 26.2735 178.65 26.2612C178.632 26.249 178.612 26.2405 178.59 26.2363C178.569 26.232 178.547 26.2321 178.526 26.2365C178.505 26.2409 178.484 26.2494 178.467 26.2618C177.816 26.732 174.978 28.5626 171.776 27.9691C170.843 27.8076 169.969 27.4039 169.241 26.7982C166.853 24.744 166.694 20.3364 169.038 18.1407C169.624 17.6481 170.286 17.255 170.997 16.9766C174.027 15.6596 178.146 15.8558 178.146 15.8558C178.189 15.0661 178.046 14.0573 176.084 13.8792C174.401 13.6999 171.186 14.2912 170.588 14.401L170.558 14.4065C170.493 14.4186 170.426 14.4174 170.361 14.4031C170.296 14.3887 170.235 14.3615 170.18 14.3231C170.126 14.2845 170.08 14.2355 170.045 14.1789C170.009 14.1223 169.986 14.0592 169.976 13.9933L169.034 11.1836C169.012 11.0527 169.044 10.9186 169.12 10.8105C169.197 10.7025 169.313 10.629 169.443 10.6061C170.338 10.4646 172.841 10.1062 173.922 9.98984C179.465 9.32992 181.162 11.1622 181.784 11.8334C181.822 11.8749 181.856 11.9119 181.887 11.9437C183.235 13.4592 183.328 15.5956 183.315 17.5198L183.278 22.5413C183.278 23.9758 183.767 24.0875 184.308 24.2113ZM177.875 22.9704C178.046 22.7946 178.142 22.5588 178.144 22.313V19.396C178.144 19.0897 177.318 19.1799 177.113 19.2023C177.089 19.2049 177.074 19.2066 177.07 19.2066C175.674 19.396 174.689 19.6562 174.059 19.9849C173.255 20.4094 172.855 21.0509 172.855 21.9022C172.843 22.192 172.899 22.4805 173.018 22.745C173.136 23.0096 173.314 23.243 173.537 23.4269C175.221 24.6321 177.327 23.5524 177.875 22.9704Z" fill="#303330"/>
</g>
<defs>
<clipPath id="clip0_169_427">
<rect width="204" height="33" fill="white"/>
</clipPath>
</defs>
</svg>
