<svg width="202" height="32" viewBox="0 0 202 32" fill="none" xmlns="http://www.w3.org/2000/svg">
<g clip-path="url(#clip0_169_420)">
<path d="M8.29306 25.4C6.6749 22.8667 5.66355 19.4 5.66355 16.0667C5.66355 12.8 6.54005 9.66667 8.09079 7L8.29306 6.66667C9.84379 3.6 13.2824 1.53333 16.6535 1.53333C18.8785 1.53333 21.1709 2.2 22.9913 3.13333C26.2951 5.13333 28.9246 8.2 30.4079 11.8V6.33333C30.4079 5.13333 28.52 3.73333 28.52 3.73333C25.2837 1.4 21.3057 0 16.9907 0C15.2377 0 12.8104 0.466667 12.8104 0.466667C5.46128 2.06667 0 8.46667 0 16.0667C0 24.2 6.20294 30.9333 14.2263 31.8C14.2263 31.8 15.8445 32.0667 16.9907 32C21.6429 32 25.9579 30.4 29.3291 27.6667L29.8011 27.2C30.2056 26.6667 30.4753 26 30.4753 25.3333V20.8C30.4753 19.4667 31.1495 18.2667 32.1609 17.5333H23.4633C24.4746 18.2667 25.1489 19.4667 25.1489 20.8L25.2163 25.0667C25.2163 25.9333 24.8792 26.6667 24.3398 27.2667C23.6656 28.0667 20.9686 29.4 20.9686 29.4C19.6876 30.0667 18.2043 30.4667 16.5861 30.4667C12.9453 30.3333 9.84379 28.3333 8.29306 25.4Z" fill="#1B1B1B"/>
<path d="M95.8084 16C95.8084 23.6 101.27 29.8667 108.484 31.4C108.484 31.4 110.911 31.8667 112.664 31.8667C116.979 31.8667 120.89 30.5333 124.126 28.2C124.126 28.2 126.081 27 126.081 25.8L126.823 20C124.598 25.4667 120.822 27.5333 118.665 28.7333C116.844 29.6667 114.485 30.3333 112.327 30.3333C108.956 30.3333 105.517 28.4667 103.967 25.4L103.764 25.0667C102.214 22.4 101.337 19.3333 101.337 16C101.337 12.7333 102.214 9.6 103.764 6.93333L103.967 6.6C105.517 3.53333 108.956 1.46667 112.327 1.46667C114.552 1.46667 116.844 2.13333 118.665 3.06667C121.969 5.06667 124.598 8.13333 126.081 11.7333V6.26667C126.081 5.06667 124.194 3.66667 124.194 3.66667C120.957 1.33333 116.979 0 112.664 0C110.911 0 108.484 0.466667 108.484 0.466667C101.202 1.93333 95.8084 8.33333 95.8084 16Z" fill="#1B1B1B"/>
<path d="M145.769 16C145.769 23.6 151.23 29.8667 158.445 31.4C158.445 31.4 160.872 31.8667 162.625 31.8667C166.94 31.8667 170.85 30.5333 174.087 28.2C174.087 28.2 176.042 27 176.042 25.7333L176.784 19.9333C174.559 25.4 170.783 27.4667 168.626 28.6667C166.805 29.6 164.445 30.2667 162.288 30.2667C158.917 30.2667 155.478 28.3333 153.927 25.3333L153.725 25C152.174 22.3333 151.298 19.2667 151.298 15.9333C151.298 12.6667 152.174 9.53333 153.725 6.86667L153.927 6.53333C155.478 3.46667 158.917 1.4 162.288 1.4C164.513 1.4 166.805 2.06667 168.626 3C171.929 5 174.559 8.06667 176.042 11.6667V6.33333C176.042 5.13333 174.154 3.73333 174.154 3.73333C170.985 1.4 167.007 0 162.692 0C160.939 0 158.512 0.466667 158.512 0.466667C151.23 2 145.769 8.4 145.769 16Z" fill="#1B1B1B"/>
<path d="M202 1.39999H193.64C194.651 2.13333 195.325 3.26666 195.325 4.59999V28.6667C195.325 29.9333 194.718 31.1333 193.707 31.8H201.865C200.921 31.0667 200.247 29.9333 200.247 28.6667V4.59999C200.314 3.26666 200.921 2.06666 202 1.39999Z" fill="#1B1B1B"/>
<path d="M57.5794 1.39999H49.219C50.2303 2.13333 50.9045 3.33333 50.9045 4.66666V22.6667C51.1742 25.9333 53.2644 28.7333 56.1636 30.0667C58.5234 31.2 61.1529 31.8667 63.9846 31.8667C66.8164 31.8667 69.5808 31.2667 71.9406 30.0667H72.008C74.9072 28.7333 76.9973 25.9333 77.267 22.6667V4.53333C77.267 3.19999 77.9413 2.06666 78.9526 1.39999H74.0981C75.1095 2.13333 75.7837 3.19999 75.7837 4.53333V22.6667V22.7333C75.5814 24.7333 74.5701 26.4667 73.1542 27.6667L73.0868 27.7333C71.4686 29 68.5694 29.9333 65.8051 29.9333C64.1195 29.9333 62.5013 29.6 60.9506 29L60.8158 28.9333C58.1188 28 56.1636 25.5333 55.8264 22.6V22.5333V4.66666C55.8264 3.26666 56.5681 2.06666 57.5794 1.39999Z" fill="#1B1B1B"/>
</g>
<defs>
<clipPath id="clip0_169_420">
<rect width="202" height="32" fill="white"/>
</clipPath>
</defs>
</svg>
