<svg width="204" height="45" viewBox="0 0 204 45" fill="none" xmlns="http://www.w3.org/2000/svg">
<g clip-path="url(#clip0_169_414)">
<path fill-rule="evenodd" clip-rule="evenodd" d="M109.051 30.9937C106.834 33.2522 104.184 34.3884 101.109 34.3884C98.6235 34.3884 96.5117 33.8794 94.3563 32.6208V27.4402C96.0896 28.6214 98.2675 29.7464 100.417 29.7464C104.9 29.7464 107.569 26.6484 107.569 22.2553C107.569 17.8594 104.808 14.6686 100.323 14.6686C98.321 14.6686 96.6974 15.3914 95.4284 16.8412C94.0693 18.412 93.3659 20.6578 93.3659 23.625V44.0817H93.0282C92.4394 44.0802 91.8567 43.9629 91.3132 43.7363C90.7698 43.5097 90.2763 43.1783 89.861 42.7611C89.4457 42.3439 89.1167 41.849 88.8927 41.3047C88.6687 40.7604 88.5542 40.1773 88.5557 39.5887V22.8586C88.5557 15.7584 92.8763 10.0266 100.303 10.0266C103.968 10.0266 106.947 11.2852 109.205 13.8164C111.328 16.1803 112.379 19.1756 112.379 22.7812C112.379 25.9875 111.269 28.7311 109.051 30.9937ZM161.137 30.8194C158.929 33.2002 156.087 34.3884 152.643 34.3884C149.006 34.3884 146.042 33.1284 143.786 30.5986C141.665 28.2052 140.612 25.207 140.612 21.6352C140.612 15.3112 145.47 10.0266 151.865 10.0266C154.331 10.0266 156.472 10.5497 158.635 11.7422V16.9734C156.901 15.7922 154.723 14.6672 152.574 14.6672C148.091 14.6672 145.421 17.7666 145.421 22.1611C145.421 26.4952 148.246 29.7478 152.667 29.7478C154.667 29.7478 156.316 28.9941 157.633 27.4767C158.944 25.9678 159.625 23.7516 159.625 20.7759V4.49297C159.624 3.90442 159.738 3.32134 159.962 2.77703C160.186 2.23272 160.515 1.73783 160.93 1.32062C161.346 0.903405 161.839 0.572044 162.383 0.345452C162.926 0.11886 163.509 0.00147552 164.098 0L164.435 0V21.5395C164.435 25.3322 163.344 28.4372 161.137 30.8194ZM174.721 7.72734C174.216 8.29547 173.493 8.55703 172.611 8.55703C170.959 8.55703 169.777 7.33359 169.777 5.68687C169.777 4.00219 170.937 2.86453 172.609 2.86453C174.22 2.86453 175.443 4.06406 175.443 5.68687C175.443 6.48844 175.209 7.1775 174.721 7.72594V7.72734ZM199.165 20.7759C199.165 18.8705 198.447 17.3616 197.006 16.2197C195.708 15.1917 194.086 14.6686 192.112 14.6686C187.757 14.6686 184.962 18.0872 184.962 22.3045C184.962 26.3616 187.926 29.7478 192.067 29.7478C194.947 29.7478 196.486 28.0575 198.129 25.9509V32.0217C197.292 32.6517 196.33 33.3394 195.348 33.7416C194.311 34.1775 193.073 34.3884 191.642 34.3884C184.719 34.3884 180.152 28.627 180.152 21.9698C180.152 18.5512 181.208 15.7247 183.337 13.5211C185.595 11.1853 188.557 10.0266 192.184 10.0266C199.058 10.0266 203.976 13.9922 203.976 21.157V33.9117H203.638C203.049 33.9102 202.466 33.7928 201.923 33.5662C201.379 33.3395 200.886 33.008 200.47 32.5907C200.055 32.1733 199.726 31.6783 199.502 31.1338C199.278 30.5893 199.163 30.0061 199.165 29.4173V20.7759ZM133.31 19.4062C132.703 17.5177 131.94 16.5881 130.187 15.6052C126.019 13.2652 121.915 15.2578 120.007 19.388L133.31 19.4062ZM129.64 34.3167C126.567 34.9734 123.552 34.4672 120.61 32.8162C117.74 31.2061 115.82 28.8127 114.856 25.6486C112.909 19.2502 116.898 12.1205 123.314 10.395C126.494 9.53859 129.544 9.92672 132.441 11.5523C137.253 14.2552 139.006 18.4345 138.7 23.8205L119.319 23.7797C119.605 25.9762 120.959 27.6947 122.864 28.7634C124.797 29.8477 126.573 30.1078 128.22 29.5931C130.049 29.0166 131.535 27.5161 132.742 26.1197L136.691 29.0109C135.08 31.9078 132.887 33.622 129.64 34.3153V34.3167ZM170.205 10.5047H175.015V33.9117H174.677C174.089 33.9102 173.506 33.7928 172.962 33.5661C172.419 33.3395 171.925 33.008 171.51 32.5906C171.094 32.1732 170.765 31.6782 170.542 31.1337C170.318 30.5892 170.203 30.006 170.205 29.4173V10.5033V10.5047ZM7.04012 33.9103C2.33406 33.9103 1.41586e-05 30.6956 1.41586e-05 26.2069V9.17297C-0.00146575 8.58424 0.113082 8.00098 0.337118 7.45649C0.561153 6.91201 0.890289 6.41696 1.30573 5.99962C1.72118 5.58228 2.21479 5.25081 2.75839 5.02415C3.302 4.79749 3.88494 4.68007 4.47395 4.67859H4.8116V10.5047H12.9392V15.1453H4.8116V26.7441C4.8116 28.7156 5.68669 29.2697 7.56349 29.2697H12.9378V33.9103H7.04153H7.04012ZM34.9783 30.953C32.6006 33.2409 29.7446 34.3884 26.4272 34.3884C23.1392 34.3884 20.2987 33.2395 17.9225 30.953C15.5378 28.6552 14.349 25.7316 14.349 22.2075C14.349 15.3337 19.5742 10.0266 26.4272 10.0266C29.7151 10.0266 32.564 11.1839 34.9544 13.4887C37.3545 15.7992 38.5532 18.7144 38.5532 22.2075C38.5532 25.7316 37.363 28.6552 34.9797 30.953H34.9783ZM57.4717 16.1367C56.7655 17.325 56.2182 18.1786 55.8327 18.6933C55.4092 19.253 54.99 19.7002 54.5749 20.0095C57.9177 21.0952 59.1628 23.4211 59.1628 26.8875V33.9103H58.8252C57.6359 33.9073 56.4964 33.4323 55.6575 32.5898C54.8185 31.7472 54.3486 30.6061 54.3512 29.4173V27.3642C54.3512 25.1198 53.3495 23.5969 50.9831 23.5969H46.6105V33.9103H46.2728C45.0839 33.907 43.945 33.4318 43.1065 32.5892C42.2681 31.7466 41.7987 30.6057 41.8017 29.4173V4.49297C41.8001 3.90449 41.9144 3.32144 42.1382 2.77714C42.362 2.23283 42.6909 1.73793 43.1061 1.3207C43.5213 0.903471 44.0147 0.572088 44.558 0.345479C45.1014 0.11887 45.6841 0.00147532 46.2728 0L46.6105 0V18.9084H48.0329C49.5945 18.9084 50.6216 18.3712 51.2125 17.3559L55.2517 10.5061L60.7343 10.5005L57.4689 16.1367H57.4717ZM82.3035 30.953C79.9258 33.2409 77.0698 34.3884 73.7523 34.3884C70.4644 34.3884 67.6253 33.2395 65.2477 30.953C62.863 28.6552 61.6741 25.7316 61.6741 22.2075C61.6741 15.3337 66.8994 10.0266 73.7523 10.0266C77.0417 10.0266 79.8892 11.1839 82.281 13.4887C84.6797 15.7992 85.8784 18.7144 85.8784 22.2075C85.8784 25.7316 84.6882 28.6552 82.3049 30.953H82.3035ZM78.8312 16.7611C77.506 15.3675 75.8219 14.6686 73.7523 14.6686C69.3248 14.6686 66.6757 17.91 66.6757 22.2075C66.6757 26.4459 69.3882 29.7478 73.7523 29.7478C78.118 29.7478 80.829 26.4459 80.829 22.2075C80.829 19.9575 80.1565 18.1519 78.8312 16.7611ZM31.5075 16.7611C30.1822 15.3675 28.4967 14.6686 26.4286 14.6686C22.0011 14.6686 19.3519 17.91 19.3519 22.2075C19.3519 26.4459 22.0644 29.7478 26.4286 29.7478C30.7928 29.7478 33.5053 26.4459 33.5053 22.2075C33.5053 19.9575 32.8328 18.1519 31.5075 16.7611Z" fill="#03AC0E"/>
</g>
<defs>
<clipPath id="clip0_169_414">
<rect width="204" height="45" fill="white"/>
</clipPath>
</defs>
</svg>
