<svg width="123" height="36" viewBox="0 0 123 36" fill="none" xmlns="http://www.w3.org/2000/svg">
<path d="M2.52 32V6.08H12.798C14.55 6.08 15.984 6.434 17.1 7.142C18.228 7.838 19.062 8.732 19.602 9.824C20.154 10.916 20.43 12.044 20.43 13.208C20.43 14.636 20.088 15.848 19.404 16.844C18.732 17.84 17.814 18.512 16.65 18.86V17.96C18.282 18.332 19.518 19.106 20.358 20.282C21.21 21.458 21.636 22.796 21.636 24.296C21.636 25.832 21.342 27.176 20.754 28.328C20.166 29.48 19.29 30.38 18.126 31.028C16.974 31.676 15.546 32 13.842 32H2.52ZM6.912 27.914H13.302C14.058 27.914 14.736 27.764 15.336 27.464C15.936 27.152 16.404 26.72 16.74 26.168C17.088 25.604 17.262 24.938 17.262 24.17C17.262 23.474 17.112 22.85 16.812 22.298C16.512 21.746 16.074 21.308 15.498 20.984C14.922 20.648 14.232 20.48 13.428 20.48H6.912V27.914ZM6.912 16.43H12.744C13.368 16.43 13.926 16.31 14.418 16.07C14.91 15.83 15.3 15.476 15.588 15.008C15.876 14.54 16.02 13.964 16.02 13.28C16.02 12.38 15.732 11.63 15.156 11.03C14.58 10.43 13.776 10.13 12.744 10.13H6.912V16.43ZM29.1669 32.54C27.7629 32.54 26.5749 32.276 25.6029 31.748C24.6309 31.208 23.8929 30.494 23.3889 29.606C22.8969 28.718 22.6509 27.74 22.6509 26.672C22.6509 25.736 22.8069 24.896 23.1189 24.152C23.4309 23.396 23.9109 22.748 24.5589 22.208C25.2069 21.656 26.0469 21.206 27.0789 20.858C27.8589 20.606 28.7709 20.378 29.8149 20.174C30.8709 19.97 32.0109 19.784 33.2349 19.616C34.4709 19.436 35.7609 19.244 37.1049 19.04L35.5569 19.922C35.5689 18.578 35.2689 17.588 34.6569 16.952C34.0449 16.316 33.0129 15.998 31.5609 15.998C30.6849 15.998 29.8389 16.202 29.0229 16.61C28.2069 17.018 27.6369 17.72 27.3129 18.716L23.3529 17.474C23.8329 15.83 24.7449 14.51 26.0889 13.514C27.4449 12.518 29.2689 12.02 31.5609 12.02C33.2889 12.02 34.8069 12.302 36.1149 12.866C37.4349 13.43 38.4129 14.354 39.0489 15.638C39.3969 16.322 39.6069 17.024 39.6789 17.744C39.7509 18.452 39.7869 19.226 39.7869 20.066V32H35.9889V27.788L36.6189 28.472C35.7429 29.876 34.7169 30.908 33.5409 31.568C32.3769 32.216 30.9189 32.54 29.1669 32.54ZM30.0309 29.084C31.0149 29.084 31.8549 28.91 32.5509 28.562C33.2469 28.214 33.7989 27.788 34.2069 27.284C34.6269 26.78 34.9089 26.306 35.0529 25.862C35.2809 25.31 35.4069 24.68 35.4309 23.972C35.4669 23.252 35.4849 22.67 35.4849 22.226L36.8169 22.622C35.5089 22.826 34.3869 23.006 33.4509 23.162C32.5149 23.318 31.7109 23.468 31.0389 23.612C30.3669 23.744 29.7729 23.894 29.2569 24.062C28.7529 24.242 28.3269 24.452 27.9789 24.692C27.6309 24.932 27.3609 25.208 27.1689 25.52C26.9889 25.832 26.8989 26.198 26.8989 26.618C26.8989 27.098 27.0189 27.524 27.2589 27.896C27.4989 28.256 27.8469 28.544 28.3029 28.76C28.7709 28.976 29.3469 29.084 30.0309 29.084Z" fill="#101913"/>
<path d="M51.4151 32.54C49.4111 32.54 47.7011 32.096 46.2851 31.208C44.8691 30.308 43.7831 29.084 43.0271 27.536C42.2831 25.988 41.9051 24.236 41.8931 22.28C41.9051 20.288 42.2951 18.524 43.0631 16.988C43.8431 15.44 44.9471 14.228 46.3751 13.352C47.8031 12.464 49.5011 12.02 51.4691 12.02C53.6771 12.02 55.5431 12.578 57.0671 13.694C58.6031 14.798 59.6051 16.31 60.0731 18.23L55.7531 19.4C55.4171 18.356 54.8591 17.546 54.0791 16.97C53.2991 16.382 52.4111 16.088 51.4151 16.088C50.2871 16.088 49.3571 16.358 48.6251 16.898C47.8931 17.426 47.3531 18.158 47.0051 19.094C46.6571 20.03 46.4831 21.092 46.4831 22.28C46.4831 24.128 46.8971 25.622 47.7251 26.762C48.5531 27.902 49.7831 28.472 51.4151 28.472C52.5671 28.472 53.4731 28.208 54.1331 27.68C54.8051 27.152 55.3091 26.39 55.6451 25.394L60.0731 26.384C59.4731 28.364 58.4231 29.888 56.9231 30.956C55.4231 32.012 53.5871 32.54 51.4151 32.54ZM75.6262 32V22.64C75.6262 22.028 75.5842 21.35 75.5002 20.606C75.4162 19.862 75.2182 19.148 74.9062 18.464C74.6062 17.768 74.1502 17.198 73.5382 16.754C72.9382 16.31 72.1222 16.088 71.0902 16.088C70.5382 16.088 69.9922 16.178 69.4522 16.358C68.9122 16.538 68.4202 16.85 67.9762 17.294C67.5442 17.726 67.1962 18.326 66.9322 19.094C66.6682 19.85 66.5362 20.822 66.5362 22.01L63.9622 20.912C63.9622 19.256 64.2802 17.756 64.9162 16.412C65.5642 15.068 66.5122 14 67.7602 13.208C69.0082 12.404 70.5442 12.002 72.3682 12.002C73.8082 12.002 74.9962 12.242 75.9322 12.722C76.8682 13.202 77.6122 13.814 78.1642 14.558C78.7162 15.302 79.1242 16.094 79.3882 16.934C79.6522 17.774 79.8202 18.572 79.8922 19.328C79.9762 20.072 80.0182 20.678 80.0182 21.146V32H75.6262ZM62.1442 32V6.08H66.0142V19.724H66.5362V32H62.1442ZM83.5753 9.608V5.63H87.9133V9.608H83.5753ZM83.5753 32V12.56H87.9133V32H83.5753ZM91.8052 32V12.56H95.6392V17.294L95.1712 16.682C95.4112 16.034 95.7292 15.446 96.1252 14.918C96.5332 14.378 97.0192 13.934 97.5832 13.586C98.0632 13.262 98.5912 13.01 99.1672 12.83C99.7552 12.638 100.355 12.524 100.967 12.488C101.579 12.44 102.173 12.464 102.749 12.56V16.61C102.173 16.442 101.507 16.388 100.751 16.448C100.007 16.508 99.3352 16.718 98.7352 17.078C98.1352 17.402 97.6432 17.816 97.2592 18.32C96.8872 18.824 96.6112 19.4 96.4312 20.048C96.2512 20.684 96.1612 21.374 96.1612 22.118V32H91.8052ZM109.663 32.54C108.259 32.54 107.071 32.276 106.099 31.748C105.127 31.208 104.389 30.494 103.885 29.606C103.393 28.718 103.147 27.74 103.147 26.672C103.147 25.736 103.303 24.896 103.615 24.152C103.927 23.396 104.407 22.748 105.055 22.208C105.703 21.656 106.543 21.206 107.575 20.858C108.355 20.606 109.267 20.378 110.311 20.174C111.367 19.97 112.507 19.784 113.731 19.616C114.967 19.436 116.257 19.244 117.601 19.04L116.053 19.922C116.065 18.578 115.765 17.588 115.153 16.952C114.541 16.316 113.509 15.998 112.057 15.998C111.181 15.998 110.335 16.202 109.519 16.61C108.703 17.018 108.133 17.72 107.809 18.716L103.849 17.474C104.329 15.83 105.241 14.51 106.585 13.514C107.941 12.518 109.765 12.02 112.057 12.02C113.785 12.02 115.303 12.302 116.611 12.866C117.931 13.43 118.909 14.354 119.545 15.638C119.893 16.322 120.103 17.024 120.175 17.744C120.247 18.452 120.283 19.226 120.283 20.066V32H116.485V27.788L117.115 28.472C116.239 29.876 115.213 30.908 114.037 31.568C112.873 32.216 111.415 32.54 109.663 32.54ZM110.527 29.084C111.511 29.084 112.351 28.91 113.047 28.562C113.743 28.214 114.295 27.788 114.703 27.284C115.123 26.78 115.405 26.306 115.549 25.862C115.777 25.31 115.903 24.68 115.927 23.972C115.963 23.252 115.981 22.67 115.981 22.226L117.313 22.622C116.005 22.826 114.883 23.006 113.947 23.162C113.011 23.318 112.207 23.468 111.535 23.612C110.863 23.744 110.269 23.894 109.753 24.062C109.249 24.242 108.823 24.452 108.475 24.692C108.127 24.932 107.857 25.208 107.665 25.52C107.485 25.832 107.395 26.198 107.395 26.618C107.395 27.098 107.515 27.524 107.755 27.896C107.995 28.256 108.343 28.544 108.799 28.76C109.267 28.976 109.843 29.084 110.527 29.084Z" fill="#3C9379"/>
</svg>
